<mxfile host="app.diagrams.net" modified="2024-05-25T08:11:19.611Z" agent="Mozilla/5.0 (Windows NT 10.0; Win64; x64) AppleWebKit/537.36 (KHTML, like Gecko) Chrome/125.0.0.0 Safari/537.36" version="24.4.8" etag="aYFMvz8mj_auAAZ9T7J3" type="github">
  <diagram name="第 1 页" id="ITWIo_u-HHc1LJ7dlfES">
    <mxGraphModel>
      <root>
        <mxCell id="0" />
        <mxCell id="1" parent="0" />
      </root>
    </mxGraphModel>
  </diagram>
</mxfile>
